<svg xmlns="http://www.w3.org/2000/svg" xmlns:xlink="http://www.w3.org/1999/xlink" width="200" zoomAndPan="magnify" viewBox="0 0 150 149.999998" height="200" preserveAspectRatio="xMidYMid meet" version="1.0"><defs><clipPath id="02c8f8c091"><path d="M 41.5625 15 L 111.5625 15 L 111.5625 97.5 L 41.5625 97.5 Z M 41.5625 15 " clip-rule="nonzero"/></clipPath><clipPath id="bd3c2b9457"><path d="M 37.5 103.4375 L 115.3125 103.4375 L 115.3125 128.125 L 37.5 128.125 Z M 37.5 103.4375 " clip-rule="nonzero"/></clipPath></defs><path fill="#ffffff" d="M 47.761719 149.191406 C 45.519531 149.191406 43.40625 148.3125 41.820312 146.726562 L 3.289062 108.195312 C 1.703125 106.609375 0.828125 104.5 0.828125 102.253906 L 0.828125 47.761719 C 0.828125 45.519531 1.703125 43.40625 3.289062 41.820312 L 41.820312 3.289062 C 43.40625 1.703125 45.519531 0.828125 47.761719 0.828125 L 102.25 0.828125 C 104.492188 0.828125 106.605469 1.703125 108.191406 3.289062 L 146.722656 41.820312 C 148.308594 43.40625 149.183594 45.519531 149.183594 47.761719 L 149.183594 102.25 C 149.183594 104.492188 148.308594 106.605469 146.722656 108.191406 L 108.191406 146.722656 C 106.605469 148.308594 104.492188 149.183594 102.25 149.183594 L 47.761719 149.183594 Z M 47.761719 149.191406 " fill-opacity="1" fill-rule="nonzero"/><path fill="#f23636" d="M 102.253906 1.652344 C 104.277344 1.652344 106.183594 2.441406 107.613281 3.875 L 146.140625 42.40625 C 147.574219 43.835938 148.363281 45.738281 148.363281 47.761719 L 148.363281 102.25 C 148.363281 104.273438 147.574219 106.179688 146.140625 107.605469 L 107.613281 146.136719 C 106.179688 147.570312 104.277344 148.359375 102.253906 148.359375 L 47.761719 148.359375 C 45.738281 148.359375 43.832031 147.570312 42.40625 146.136719 L 3.875 107.613281 C 2.441406 106.179688 1.652344 104.277344 1.652344 102.253906 L 1.652344 47.761719 C 1.652344 45.738281 2.441406 43.832031 3.875 42.40625 L 42.40625 3.875 C 43.835938 2.441406 45.738281 1.652344 47.761719 1.652344 L 102.25 1.652344 M 102.25 0 L 47.761719 0 C 45.3125 0 42.964844 0.96875 41.230469 2.707031 L 2.707031 41.234375 C 0.976562 42.964844 0 45.3125 0 47.765625 L 0 102.253906 C 0 104.703125 0.96875 107.050781 2.707031 108.785156 L 41.234375 147.316406 C 42.964844 149.046875 45.3125 150.023438 47.765625 150.023438 L 102.253906 150.023438 C 104.703125 150.023438 107.050781 149.046875 108.785156 147.316406 L 147.316406 108.785156 C 149.046875 107.054688 150.023438 104.707031 150.023438 102.253906 L 150.023438 47.761719 C 150.023438 45.3125 149.050781 42.964844 147.316406 41.230469 L 108.78125 2.707031 C 107.050781 0.976562 104.703125 0 102.25 0 Z M 102.25 0 " fill-opacity="1" fill-rule="nonzero"/><path fill="#f23636" d="M 100.617188 6.761719 L 49.398438 6.761719 C 47.695312 6.761719 46.0625 7.4375 44.855469 8.640625 L 8.640625 44.855469 C 7.4375 46.058594 6.761719 47.695312 6.761719 49.398438 L 6.761719 100.617188 C 6.761719 102.320312 7.4375 103.953125 8.640625 105.160156 L 44.855469 141.375 C 46.058594 142.578125 47.695312 143.253906 49.398438 143.253906 L 100.617188 143.253906 C 102.320312 143.253906 103.953125 142.578125 105.160156 141.375 L 141.375 105.160156 C 142.578125 103.957031 143.253906 102.320312 143.253906 100.617188 L 143.253906 49.398438 C 143.253906 47.695312 142.578125 46.0625 141.375 44.855469 L 105.15625 8.640625 C 103.953125 7.4375 102.316406 6.761719 100.613281 6.761719 Z M 100.617188 6.761719 " fill-opacity="1" fill-rule="nonzero"/><path fill="#ffffff" d="M 39.378906 124.625 L 41.832031 121.679688 C 43.359375 123.089844 45.378906 124.042969 47.253906 124.042969 C 49.476562 124.042969 50.660156 123.089844 50.660156 121.59375 C 50.660156 120.003906 49.363281 119.515625 47.457031 118.710938 L 44.601562 117.5 C 42.4375 116.605469 40.277344 114.875 40.277344 111.757812 C 40.277344 108.269531 43.335938 105.585938 47.660156 105.585938 C 50.140625 105.585938 52.621094 106.566406 54.351562 108.324219 L 52.1875 111.007812 C 50.832031 109.882812 49.417969 109.25 47.65625 109.25 C 45.78125 109.25 44.570312 110.085938 44.570312 111.496094 C 44.570312 113.023438 46.097656 113.574219 47.914062 114.296875 L 50.714844 115.480469 C 53.308594 116.550781 55.011719 118.191406 55.011719 121.277344 C 55.011719 124.765625 52.097656 127.738281 47.164062 127.738281 C 44.3125 127.738281 41.457031 126.613281 39.378906 124.625 Z M 39.378906 124.625 " fill-opacity="1" fill-rule="nonzero"/><path fill="#ffffff" d="M 62.371094 109.535156 L 56.367188 109.535156 L 56.367188 105.988281 L 72.691406 105.988281 L 72.691406 109.535156 L 66.636719 109.535156 L 66.636719 127.328125 L 62.363281 127.328125 L 62.363281 109.535156 Z M 62.371094 109.535156 " fill-opacity="1" fill-rule="nonzero"/><path fill="#ffffff" d="M 74.191406 116.574219 C 74.191406 109.625 78.085938 105.585938 83.734375 105.585938 C 89.382812 105.585938 93.277344 109.652344 93.277344 116.574219 C 93.277344 123.492188 89.382812 127.730469 83.734375 127.730469 C 78.085938 127.730469 74.191406 123.492188 74.191406 116.574219 Z M 88.925781 116.574219 C 88.925781 111.988281 86.910156 109.25 83.734375 109.25 C 80.558594 109.25 78.542969 111.988281 78.542969 116.574219 C 78.542969 121.15625 80.558594 124.039062 83.734375 124.039062 C 86.910156 124.039062 88.925781 121.125 88.925781 116.574219 Z M 88.925781 116.574219 " fill-opacity="1" fill-rule="nonzero"/><path fill="#ffffff" d="M 97.46875 105.992188 L 104.476562 105.992188 C 109.203125 105.992188 112.839844 107.632812 112.839844 112.683594 C 112.839844 117.730469 109.175781 119.746094 104.59375 119.746094 L 101.738281 119.746094 L 101.738281 127.328125 L 97.46875 127.328125 L 97.46875 105.988281 Z M 104.300781 116.375 C 107.242188 116.375 108.652344 115.132812 108.652344 112.683594 C 108.652344 110.230469 107.09375 109.363281 104.15625 109.363281 L 101.730469 109.363281 L 101.730469 116.375 Z M 104.300781 116.375 " fill-opacity="1" fill-rule="nonzero"/><path fill="#ffffff" d="M 91.855469 28.480469 C 89.609375 28.621094 87.910156 30.589844 87.910156 32.84375 L 87.910156 51.402344 L 85.976562 51.402344 L 85.976562 24.816406 C 85.976562 22.5625 84.28125 20.597656 82.03125 20.449219 C 79.566406 20.289062 77.523438 22.242188 77.523438 24.671875 L 77.523438 51.398438 L 75.589844 51.398438 L 75.589844 21.589844 C 75.589844 19.253906 73.699219 17.363281 71.363281 17.363281 C 69.027344 17.363281 67.136719 19.253906 67.136719 21.589844 L 67.136719 51.402344 L 65.203125 51.402344 L 65.203125 28.96875 C 65.203125 26.714844 63.503906 24.753906 61.257812 24.605469 C 58.792969 24.445312 56.75 26.394531 56.75 28.828125 L 56.75 58.640625 C 56.75 58.640625 56.75 58.660156 56.75 58.675781 C 56.75 58.6875 56.75 58.699219 56.75 58.714844 L 56.75 65.3125 L 50.566406 56.851562 C 49.238281 55.035156 46.703125 54.449219 44.808594 55.664062 C 42.722656 56.984375 42.222656 59.769531 43.65625 61.730469 L 53.816406 75.621094 C 55.871094 78.433594 57.742188 81.371094 59.597656 84.320312 C 62.875 89.515625 68.664062 92.96875 75.257812 92.96875 L 77.875 92.96875 C 88.097656 92.96875 96.382812 84.683594 96.382812 74.464844 L 96.382812 32.695312 C 96.382812 30.265625 94.335938 28.3125 91.875 28.472656 Z M 91.855469 28.480469 " fill-opacity="1" fill-rule="nonzero"/><g clip-path="url(#02c8f8c091)"><path fill="#f23636" d="M 41.5625 15 L 111.5625 15 L 111.5625 97.578125 L 41.5625 97.578125 Z M 41.5625 15 " fill-opacity="1" fill-rule="nonzero"/></g><g clip-path="url(#bd3c2b9457)"><path fill="#f23636" d="M 37.5 103.4375 L 115.324219 103.4375 L 115.324219 128.125 L 37.5 128.125 Z M 37.5 103.4375 " fill-opacity="1" fill-rule="nonzero"/></g></svg>